
<svg width="1844px" height="2347px" viewBox="0 0 1844 2347" version="1.1" xmlns="http://www.w3.org/2000/svg" xmlns:xlink="http://www.w3.org/1999/xlink">
    <!-- Generator: Sketch 50.2 (55047) - http://www.bohemiancoding.com/sketch -->
    <desc>Created with Sketch.</desc>
    <defs></defs>
    <g id="05-" stroke="none" stroke-width="1" fill="none" fill-rule="evenodd">
        <g id="Page-Solutions" transform="translate(-76.000000, -585.000000)" fill="#C2D7FD">
            <g id="BG-Shapes" transform="translate(-204.000000, 585.000000)">
                <g id="Group-Copy-7" transform="translate(1631.500000, 1141.500000) scale(-1, 1) translate(-1631.500000, -1141.500000) translate(1139.000000, 866.000000)">
                    <path d="M574.042571,461.318809 C573.707098,460.590752 582.250006,453.834148 586.253956,449.991887 C586.444448,449.809149 588.954412,447.09506 589.421598,447.367251 C592.607029,466.501851 593.260036,468.748735 592.971482,469.205462 C592.603397,469.788158 589.4889,468.409923 588.902453,468.212954 C588.902453,468.212954 574.377969,462.046945 574.042571,461.318809 Z" id="Fill-48" transform="translate(583.532971, 458.348086) rotate(-50.000000) translate(-583.532971, -458.348086) "></path>
                    <polygon id="Fill-34" points="894.485351 538 901 544.657774 894.514649 551 888 544.342226"></polygon>
                    <polygon id="Fill-34-Copy" points="7.9819708 529 16 537.194183 8.0180292 545 0 536.805817"></polygon>
                    <polygon id="Fill-34-Copy-2" points="592.981971 0 601 8.19418301 593.018029 16 585 7.80581699"></polygon>
                    <polygon id="Fill-34-Copy-3" points="284.489859 398 289 402.609228 284.510141 407 280 402.390772"></polygon>
                    <polygon id="Fill-34-Copy-4" points="976.981971 91 985 99.194183 977.018029 107 969 98.805817"></polygon>
                    <path d="M291.023801,110.180892 C287.710126,113.726183 291.688567,119.417593 296.3704,117.368895 C298.057124,116.6308 299.260198,113.960524 298.633592,112.391672 C296.67096,107.477766 292.573284,108.523105 291.023801,110.180892 Z" id="Fill-52-Copy" transform="translate(294.302027, 113.302027) rotate(233.000000) translate(-294.302027, -113.302027) "></path>
                    <path d="M670.695757,242.887757 C666.645709,247.220891 671.508248,254.177058 677.230489,251.673093 C679.292041,250.770978 680.762464,247.507307 679.996613,245.589821 C677.59784,239.583936 672.589569,240.861573 670.695757,242.887757 Z" id="Fill-52-Copy-2" transform="translate(674.702478, 246.702478) rotate(233.000000) translate(-674.702478, -246.702478) "></path>
                </g>
                <g id="Group-Copy-10" transform="translate(585.500000, 1026.500000) scale(-1, 1) translate(-585.500000, -1026.500000) translate(93.000000, 751.000000)">
                    <path d="M574.042571,461.318809 C573.707098,460.590752 582.250006,453.834148 586.253956,449.991887 C586.444448,449.809149 588.954412,447.09506 589.421598,447.367251 C592.607029,466.501851 593.260036,468.748735 592.971482,469.205462 C592.603397,469.788158 589.4889,468.409923 588.902453,468.212954 C588.902453,468.212954 574.377969,462.046945 574.042571,461.318809 Z" id="Fill-48" transform="translate(583.532971, 458.348086) rotate(-50.000000) translate(-583.532971, -458.348086) "></path>
                    <polygon id="Fill-34-Copy" points="7.9819708 529 16 537.194183 8.0180292 545 0 536.805817"></polygon>
                    <polygon id="Fill-34-Copy-2" points="592.981971 0 601 8.19418301 593.018029 16 585 7.80581699"></polygon>
                    <polygon id="Fill-34-Copy-3" points="284.489859 398 289 402.609228 284.510141 407 280 402.390772"></polygon>
                    <path d="M291.023801,110.180892 C287.710126,113.726183 291.688567,119.417593 296.3704,117.368895 C298.057124,116.6308 299.260198,113.960524 298.633592,112.391672 C296.67096,107.477766 292.573284,108.523105 291.023801,110.180892 Z" id="Fill-52-Copy" transform="translate(294.302027, 113.302027) rotate(233.000000) translate(-294.302027, -113.302027) "></path>
                    <path d="M670.695757,242.887757 C666.645709,247.220891 671.508248,254.177058 677.230489,251.673093 C679.292041,250.770978 680.762464,247.507307 679.996613,245.589821 C677.59784,239.583936 672.589569,240.861573 670.695757,242.887757 Z" id="Fill-52-Copy-2" transform="translate(674.702478, 246.702478) rotate(233.000000) translate(-674.702478, -246.702478) "></path>
                </g>
                <g id="Group-Copy-11" transform="translate(1820.500000, 275.500000) scale(-1, 1) translate(-1820.500000, -275.500000) translate(1328.000000, 0.000000)">
                    <path d="M574.042571,461.318809 C573.707098,460.590752 582.250006,453.834148 586.253956,449.991887 C586.444448,449.809149 588.954412,447.09506 589.421598,447.367251 C592.607029,466.501851 593.260036,468.748735 592.971482,469.205462 C592.603397,469.788158 589.4889,468.409923 588.902453,468.212954 C588.902453,468.212954 574.377969,462.046945 574.042571,461.318809 Z" id="Fill-48" transform="translate(583.532971, 458.348086) rotate(-50.000000) translate(-583.532971, -458.348086) "></path>
                    <polygon id="Fill-34" points="894.485351 538 901 544.657774 894.514649 551 888 544.342226"></polygon>
                    <polygon id="Fill-34-Copy-2" points="592.981971 0 601 8.19418301 593.018029 16 585 7.80581699"></polygon>
                    <polygon id="Fill-34-Copy-3" points="284.489859 398 289 402.609228 284.510141 407 280 402.390772"></polygon>
                    <polygon id="Fill-34-Copy-4" points="976.981971 91 985 99.194183 977.018029 107 969 98.805817"></polygon>
                    <path d="M291.023801,110.180892 C287.710126,113.726183 291.688567,119.417593 296.3704,117.368895 C298.057124,116.6308 299.260198,113.960524 298.633592,112.391672 C296.67096,107.477766 292.573284,108.523105 291.023801,110.180892 Z" id="Fill-52-Copy" transform="translate(294.302027, 113.302027) rotate(233.000000) translate(-294.302027, -113.302027) "></path>
                    <path d="M670.695757,242.887757 C666.645709,247.220891 671.508248,254.177058 677.230489,251.673093 C679.292041,250.770978 680.762464,247.507307 679.996613,245.589821 C677.59784,239.583936 672.589569,240.861573 670.695757,242.887757 Z" id="Fill-52-Copy-2" transform="translate(674.702478, 246.702478) rotate(233.000000) translate(-674.702478, -246.702478) "></path>
                </g>
                <g id="Group-Copy-12" transform="translate(492.500000, 315.500000) scale(1, -1) translate(-492.500000, -315.500000) translate(0.000000, 40.000000)">
                    <path d="M574.042571,461.318809 C573.707098,460.590752 582.250006,453.834148 586.253956,449.991887 C586.444448,449.809149 588.954412,447.09506 589.421598,447.367251 C592.607029,466.501851 593.260036,468.748735 592.971482,469.205462 C592.603397,469.788158 589.4889,468.409923 588.902453,468.212954 C588.902453,468.212954 574.377969,462.046945 574.042571,461.318809 Z" id="Fill-48" transform="translate(583.532971, 458.348086) rotate(-50.000000) translate(-583.532971, -458.348086) "></path>
                    <polygon id="Fill-34" points="894.485351 538 901 544.657774 894.514649 551 888 544.342226"></polygon>
                    <polygon id="Fill-34-Copy-2" points="592.981971 0 601 8.19418301 593.018029 16 585 7.80581699"></polygon>
                    <polygon id="Fill-34-Copy-3" points="284.489859 398 289 402.609228 284.510141 407 280 402.390772"></polygon>
                    <polygon id="Fill-34-Copy-4" points="976.981971 91 985 99.194183 977.018029 107 969 98.805817"></polygon>
                    <path d="M291.023801,110.180892 C287.710126,113.726183 291.688567,119.417593 296.3704,117.368895 C298.057124,116.6308 299.260198,113.960524 298.633592,112.391672 C296.67096,107.477766 292.573284,108.523105 291.023801,110.180892 Z" id="Fill-52-Copy" transform="translate(294.302027, 113.302027) rotate(233.000000) translate(-294.302027, -113.302027) "></path>
                    <path d="M670.695757,242.887757 C666.645709,247.220891 671.508248,254.177058 677.230489,251.673093 C679.292041,250.770978 680.762464,247.507307 679.996613,245.589821 C677.59784,239.583936 672.589569,240.861573 670.695757,242.887757 Z" id="Fill-52-Copy-2" transform="translate(674.702478, 246.702478) rotate(233.000000) translate(-674.702478, -246.702478) "></path>
                </g>
                <g id="Group-Copy-8" transform="translate(773.500000, 1757.500000) scale(-1, 1) translate(-773.500000, -1757.500000) translate(281.000000, 1482.000000)">
                    <path d="M574.042571,461.318809 C573.707098,460.590752 582.250006,453.834148 586.253956,449.991887 C586.444448,449.809149 588.954412,447.09506 589.421598,447.367251 C592.607029,466.501851 593.260036,468.748735 592.971482,469.205462 C592.603397,469.788158 589.4889,468.409923 588.902453,468.212954 C588.902453,468.212954 574.377969,462.046945 574.042571,461.318809 Z" id="Fill-48" transform="translate(583.532971, 458.348086) rotate(-50.000000) translate(-583.532971, -458.348086) "></path>
                    <polygon id="Fill-34" points="894.485351 538 901 544.657774 894.514649 551 888 544.342226"></polygon>
                    <polygon id="Fill-34-Copy" points="7.9819708 529 16 537.194183 8.0180292 545 0 536.805817"></polygon>
                    <polygon id="Fill-34-Copy-2" points="592.981971 0 601 8.19418301 593.018029 16 585 7.80581699"></polygon>
                    <polygon id="Fill-34-Copy-3" points="284.489859 398 289 402.609228 284.510141 407 280 402.390772"></polygon>
                    <polygon id="Fill-34-Copy-4" points="976.981971 91 985 99.194183 977.018029 107 969 98.805817"></polygon>
                    <path d="M291.023801,110.180892 C287.710126,113.726183 291.688567,119.417593 296.3704,117.368895 C298.057124,116.6308 299.260198,113.960524 298.633592,112.391672 C296.67096,107.477766 292.573284,108.523105 291.023801,110.180892 Z" id="Fill-52-Copy" transform="translate(294.302027, 113.302027) rotate(233.000000) translate(-294.302027, -113.302027) "></path>
                    <path d="M670.695757,242.887757 C666.645709,247.220891 671.508248,254.177058 677.230489,251.673093 C679.292041,250.770978 680.762464,247.507307 679.996613,245.589821 C677.59784,239.583936 672.589569,240.861573 670.695757,242.887757 Z" id="Fill-52-Copy-2" transform="translate(674.702478, 246.702478) rotate(233.000000) translate(-674.702478, -246.702478) "></path>
                </g>
                <g id="Group-Copy-9" transform="translate(1631.500000, 2071.500000) scale(-1, 1) translate(-1631.500000, -2071.500000) translate(1139.000000, 1796.000000)">
                    <path d="M574.042571,461.318809 C573.707098,460.590752 582.250006,453.834148 586.253956,449.991887 C586.444448,449.809149 588.954412,447.09506 589.421598,447.367251 C592.607029,466.501851 593.260036,468.748735 592.971482,469.205462 C592.603397,469.788158 589.4889,468.409923 588.902453,468.212954 C588.902453,468.212954 574.377969,462.046945 574.042571,461.318809 Z" id="Fill-48" transform="translate(583.532971, 458.348086) rotate(-50.000000) translate(-583.532971, -458.348086) "></path>
                    <polygon id="Fill-34" points="894.485351 538 901 544.657774 894.514649 551 888 544.342226"></polygon>
                    <polygon id="Fill-34-Copy" points="7.9819708 529 16 537.194183 8.0180292 545 0 536.805817"></polygon>
                    <polygon id="Fill-34-Copy-2" points="592.981971 0 601 8.19418301 593.018029 16 585 7.80581699"></polygon>
                    <polygon id="Fill-34-Copy-3" points="284.489859 398 289 402.609228 284.510141 407 280 402.390772"></polygon>
                    <polygon id="Fill-34-Copy-4" points="976.981971 91 985 99.194183 977.018029 107 969 98.805817"></polygon>
                    <path d="M291.023801,110.180892 C287.710126,113.726183 291.688567,119.417593 296.3704,117.368895 C298.057124,116.6308 299.260198,113.960524 298.633592,112.391672 C296.67096,107.477766 292.573284,108.523105 291.023801,110.180892 Z" id="Fill-52-Copy" transform="translate(294.302027, 113.302027) rotate(233.000000) translate(-294.302027, -113.302027) "></path>
                    <path d="M670.695757,242.887757 C666.645709,247.220891 671.508248,254.177058 677.230489,251.673093 C679.292041,250.770978 680.762464,247.507307 679.996613,245.589821 C677.59784,239.583936 672.589569,240.861573 670.695757,242.887757 Z" id="Fill-52-Copy-2" transform="translate(674.702478, 246.702478) rotate(233.000000) translate(-674.702478, -246.702478) "></path>
                </g>
            </g>
        </g>
    </g>
</svg>